<mxfile host="app.diagrams.net" modified="2021-11-22T20:20:43.896Z" agent="5.0 (Windows NT 10.0; Win64; x64) AppleWebKit/537.36 (KHTML, like Gecko) Chrome/96.0.4664.45 Safari/537.36" etag="FTov4N7SaIFJjbAYVkWq" version="15.8.3" type="github" pages="2">
  <diagram id="F_1uuA0XFtEVqyFglh3j" name="Page-1">
    <mxGraphModel dx="4578" dy="547" grid="1" gridSize="10" guides="1" tooltips="1" connect="1" arrows="1" fold="1" page="1" pageScale="1" pageWidth="3300" pageHeight="4681" math="0" shadow="0">
      <root>
        <mxCell id="0" />
        <mxCell id="1" parent="0" />
        <mxCell id="oa0vE_YfLMu9OCanx_ZE-7" style="edgeStyle=orthogonalEdgeStyle;rounded=0;orthogonalLoop=1;jettySize=auto;html=1;exitX=0;exitY=0.5;exitDx=0;exitDy=0;entryX=0.5;entryY=0;entryDx=0;entryDy=0;" parent="1" source="oa0vE_YfLMu9OCanx_ZE-1" target="oa0vE_YfLMu9OCanx_ZE-2" edge="1">
          <mxGeometry relative="1" as="geometry" />
        </mxCell>
        <mxCell id="oa0vE_YfLMu9OCanx_ZE-8" style="edgeStyle=orthogonalEdgeStyle;rounded=0;orthogonalLoop=1;jettySize=auto;html=1;exitX=0;exitY=0.5;exitDx=0;exitDy=0;entryX=0.5;entryY=0;entryDx=0;entryDy=0;" parent="1" source="oa0vE_YfLMu9OCanx_ZE-1" target="oa0vE_YfLMu9OCanx_ZE-3" edge="1">
          <mxGeometry relative="1" as="geometry" />
        </mxCell>
        <mxCell id="oa0vE_YfLMu9OCanx_ZE-9" style="edgeStyle=orthogonalEdgeStyle;rounded=0;orthogonalLoop=1;jettySize=auto;html=1;exitX=0.5;exitY=1;exitDx=0;exitDy=0;entryX=0.5;entryY=0;entryDx=0;entryDy=0;" parent="1" source="oa0vE_YfLMu9OCanx_ZE-1" target="oa0vE_YfLMu9OCanx_ZE-4" edge="1">
          <mxGeometry relative="1" as="geometry" />
        </mxCell>
        <mxCell id="oa0vE_YfLMu9OCanx_ZE-10" style="edgeStyle=orthogonalEdgeStyle;rounded=0;orthogonalLoop=1;jettySize=auto;html=1;exitX=1;exitY=0.5;exitDx=0;exitDy=0;entryX=0.5;entryY=0;entryDx=0;entryDy=0;" parent="1" source="oa0vE_YfLMu9OCanx_ZE-1" target="oa0vE_YfLMu9OCanx_ZE-5" edge="1">
          <mxGeometry relative="1" as="geometry" />
        </mxCell>
        <mxCell id="oa0vE_YfLMu9OCanx_ZE-1" value="создание сайта" style="rounded=0;whiteSpace=wrap;html=1;" parent="1" vertex="1">
          <mxGeometry x="370" y="50" width="120" height="60" as="geometry" />
        </mxCell>
        <mxCell id="oa0vE_YfLMu9OCanx_ZE-18" style="edgeStyle=orthogonalEdgeStyle;rounded=0;orthogonalLoop=1;jettySize=auto;html=1;exitX=0.5;exitY=1;exitDx=0;exitDy=0;entryX=1;entryY=0.5;entryDx=0;entryDy=0;" parent="1" source="oa0vE_YfLMu9OCanx_ZE-2" target="oa0vE_YfLMu9OCanx_ZE-12" edge="1">
          <mxGeometry relative="1" as="geometry" />
        </mxCell>
        <mxCell id="oa0vE_YfLMu9OCanx_ZE-19" style="edgeStyle=orthogonalEdgeStyle;rounded=0;orthogonalLoop=1;jettySize=auto;html=1;exitX=0.5;exitY=1;exitDx=0;exitDy=0;entryX=1;entryY=0.5;entryDx=0;entryDy=0;" parent="1" source="oa0vE_YfLMu9OCanx_ZE-2" target="oa0vE_YfLMu9OCanx_ZE-16" edge="1">
          <mxGeometry relative="1" as="geometry" />
        </mxCell>
        <mxCell id="oa0vE_YfLMu9OCanx_ZE-20" style="edgeStyle=orthogonalEdgeStyle;rounded=0;orthogonalLoop=1;jettySize=auto;html=1;exitX=0.5;exitY=1;exitDx=0;exitDy=0;entryX=1;entryY=0.5;entryDx=0;entryDy=0;" parent="1" source="oa0vE_YfLMu9OCanx_ZE-2" target="oa0vE_YfLMu9OCanx_ZE-17" edge="1">
          <mxGeometry relative="1" as="geometry" />
        </mxCell>
        <mxCell id="oa0vE_YfLMu9OCanx_ZE-21" style="edgeStyle=orthogonalEdgeStyle;rounded=0;orthogonalLoop=1;jettySize=auto;html=1;exitX=0.5;exitY=1;exitDx=0;exitDy=0;entryX=1;entryY=0.5;entryDx=0;entryDy=0;" parent="1" source="oa0vE_YfLMu9OCanx_ZE-2" target="oa0vE_YfLMu9OCanx_ZE-13" edge="1">
          <mxGeometry relative="1" as="geometry" />
        </mxCell>
        <mxCell id="oa0vE_YfLMu9OCanx_ZE-22" style="edgeStyle=orthogonalEdgeStyle;rounded=0;orthogonalLoop=1;jettySize=auto;html=1;exitX=0.5;exitY=1;exitDx=0;exitDy=0;entryX=1;entryY=0.5;entryDx=0;entryDy=0;" parent="1" source="oa0vE_YfLMu9OCanx_ZE-2" target="oa0vE_YfLMu9OCanx_ZE-14" edge="1">
          <mxGeometry relative="1" as="geometry" />
        </mxCell>
        <mxCell id="oa0vE_YfLMu9OCanx_ZE-23" style="edgeStyle=orthogonalEdgeStyle;rounded=0;orthogonalLoop=1;jettySize=auto;html=1;exitX=0.5;exitY=1;exitDx=0;exitDy=0;entryX=1;entryY=0.5;entryDx=0;entryDy=0;" parent="1" source="oa0vE_YfLMu9OCanx_ZE-2" target="oa0vE_YfLMu9OCanx_ZE-15" edge="1">
          <mxGeometry relative="1" as="geometry" />
        </mxCell>
        <mxCell id="oa0vE_YfLMu9OCanx_ZE-2" value="планирование работ" style="rounded=0;whiteSpace=wrap;html=1;" parent="1" vertex="1">
          <mxGeometry x="-70" y="150" width="120" height="60" as="geometry" />
        </mxCell>
        <mxCell id="oa0vE_YfLMu9OCanx_ZE-40" style="edgeStyle=orthogonalEdgeStyle;rounded=0;orthogonalLoop=1;jettySize=auto;html=1;exitX=0.5;exitY=1;exitDx=0;exitDy=0;entryX=1;entryY=0.5;entryDx=0;entryDy=0;" parent="1" source="oa0vE_YfLMu9OCanx_ZE-3" target="oa0vE_YfLMu9OCanx_ZE-28" edge="1">
          <mxGeometry relative="1" as="geometry" />
        </mxCell>
        <mxCell id="oa0vE_YfLMu9OCanx_ZE-41" style="edgeStyle=orthogonalEdgeStyle;rounded=0;orthogonalLoop=1;jettySize=auto;html=1;exitX=0.5;exitY=1;exitDx=0;exitDy=0;entryX=1;entryY=0.5;entryDx=0;entryDy=0;" parent="1" source="oa0vE_YfLMu9OCanx_ZE-3" target="oa0vE_YfLMu9OCanx_ZE-29" edge="1">
          <mxGeometry relative="1" as="geometry" />
        </mxCell>
        <mxCell id="oa0vE_YfLMu9OCanx_ZE-42" style="edgeStyle=orthogonalEdgeStyle;rounded=0;orthogonalLoop=1;jettySize=auto;html=1;exitX=0.5;exitY=1;exitDx=0;exitDy=0;entryX=1;entryY=0.5;entryDx=0;entryDy=0;" parent="1" source="oa0vE_YfLMu9OCanx_ZE-3" target="oa0vE_YfLMu9OCanx_ZE-24" edge="1">
          <mxGeometry relative="1" as="geometry" />
        </mxCell>
        <mxCell id="oa0vE_YfLMu9OCanx_ZE-60" style="edgeStyle=orthogonalEdgeStyle;rounded=0;orthogonalLoop=1;jettySize=auto;html=1;exitX=0.5;exitY=1;exitDx=0;exitDy=0;entryX=1;entryY=0.5;entryDx=0;entryDy=0;" parent="1" source="oa0vE_YfLMu9OCanx_ZE-3" target="oa0vE_YfLMu9OCanx_ZE-59" edge="1">
          <mxGeometry relative="1" as="geometry" />
        </mxCell>
        <mxCell id="oa0vE_YfLMu9OCanx_ZE-89" style="edgeStyle=orthogonalEdgeStyle;rounded=0;orthogonalLoop=1;jettySize=auto;html=1;exitX=0.5;exitY=1;exitDx=0;exitDy=0;entryX=1;entryY=0.5;entryDx=0;entryDy=0;" parent="1" source="oa0vE_YfLMu9OCanx_ZE-3" target="oa0vE_YfLMu9OCanx_ZE-88" edge="1">
          <mxGeometry relative="1" as="geometry" />
        </mxCell>
        <mxCell id="oa0vE_YfLMu9OCanx_ZE-3" value="проектирование" style="rounded=0;whiteSpace=wrap;html=1;" parent="1" vertex="1">
          <mxGeometry x="180" y="150" width="120" height="60" as="geometry" />
        </mxCell>
        <mxCell id="oa0vE_YfLMu9OCanx_ZE-44" style="edgeStyle=orthogonalEdgeStyle;rounded=0;orthogonalLoop=1;jettySize=auto;html=1;exitX=0;exitY=0.5;exitDx=0;exitDy=0;entryX=0;entryY=0.5;entryDx=0;entryDy=0;" parent="1" source="oa0vE_YfLMu9OCanx_ZE-4" target="oa0vE_YfLMu9OCanx_ZE-43" edge="1">
          <mxGeometry relative="1" as="geometry">
            <Array as="points">
              <mxPoint x="320" y="180" />
              <mxPoint x="320" y="345" />
            </Array>
          </mxGeometry>
        </mxCell>
        <mxCell id="oa0vE_YfLMu9OCanx_ZE-50" style="edgeStyle=orthogonalEdgeStyle;rounded=0;orthogonalLoop=1;jettySize=auto;html=1;exitX=0;exitY=0.5;exitDx=0;exitDy=0;entryX=0;entryY=0.5;entryDx=0;entryDy=0;" parent="1" source="oa0vE_YfLMu9OCanx_ZE-4" target="oa0vE_YfLMu9OCanx_ZE-49" edge="1">
          <mxGeometry relative="1" as="geometry" />
        </mxCell>
        <mxCell id="oa0vE_YfLMu9OCanx_ZE-58" style="edgeStyle=orthogonalEdgeStyle;rounded=0;orthogonalLoop=1;jettySize=auto;html=1;exitX=0;exitY=0.5;exitDx=0;exitDy=0;entryX=0;entryY=0.5;entryDx=0;entryDy=0;" parent="1" source="oa0vE_YfLMu9OCanx_ZE-4" target="oa0vE_YfLMu9OCanx_ZE-53" edge="1">
          <mxGeometry relative="1" as="geometry" />
        </mxCell>
        <mxCell id="oa0vE_YfLMu9OCanx_ZE-65" style="edgeStyle=orthogonalEdgeStyle;rounded=0;orthogonalLoop=1;jettySize=auto;html=1;exitX=1;exitY=0.5;exitDx=0;exitDy=0;entryX=0.5;entryY=0;entryDx=0;entryDy=0;" parent="1" source="oa0vE_YfLMu9OCanx_ZE-4" target="oa0vE_YfLMu9OCanx_ZE-61" edge="1">
          <mxGeometry relative="1" as="geometry" />
        </mxCell>
        <mxCell id="oa0vE_YfLMu9OCanx_ZE-72" style="edgeStyle=orthogonalEdgeStyle;rounded=0;orthogonalLoop=1;jettySize=auto;html=1;exitX=1;exitY=0.5;exitDx=0;exitDy=0;entryX=0;entryY=0.5;entryDx=0;entryDy=0;" parent="1" source="oa0vE_YfLMu9OCanx_ZE-4" target="oa0vE_YfLMu9OCanx_ZE-69" edge="1">
          <mxGeometry relative="1" as="geometry">
            <Array as="points">
              <mxPoint x="560" y="180" />
              <mxPoint x="560" y="590" />
            </Array>
          </mxGeometry>
        </mxCell>
        <mxCell id="oa0vE_YfLMu9OCanx_ZE-4" value="разработка" style="rounded=0;whiteSpace=wrap;html=1;" parent="1" vertex="1">
          <mxGeometry x="370" y="150" width="120" height="60" as="geometry" />
        </mxCell>
        <mxCell id="oa0vE_YfLMu9OCanx_ZE-83" style="edgeStyle=orthogonalEdgeStyle;rounded=0;orthogonalLoop=1;jettySize=auto;html=1;exitX=0.25;exitY=1;exitDx=0;exitDy=0;entryX=0;entryY=0.5;entryDx=0;entryDy=0;" parent="1" source="oa0vE_YfLMu9OCanx_ZE-5" target="oa0vE_YfLMu9OCanx_ZE-76" edge="1">
          <mxGeometry relative="1" as="geometry" />
        </mxCell>
        <mxCell id="oa0vE_YfLMu9OCanx_ZE-84" style="edgeStyle=orthogonalEdgeStyle;rounded=0;orthogonalLoop=1;jettySize=auto;html=1;exitX=0.25;exitY=1;exitDx=0;exitDy=0;entryX=0;entryY=0.5;entryDx=0;entryDy=0;" parent="1" source="oa0vE_YfLMu9OCanx_ZE-5" target="oa0vE_YfLMu9OCanx_ZE-77" edge="1">
          <mxGeometry relative="1" as="geometry" />
        </mxCell>
        <mxCell id="oa0vE_YfLMu9OCanx_ZE-85" style="edgeStyle=orthogonalEdgeStyle;rounded=0;orthogonalLoop=1;jettySize=auto;html=1;exitX=0.25;exitY=1;exitDx=0;exitDy=0;entryX=0;entryY=0.5;entryDx=0;entryDy=0;" parent="1" source="oa0vE_YfLMu9OCanx_ZE-5" target="oa0vE_YfLMu9OCanx_ZE-78" edge="1">
          <mxGeometry relative="1" as="geometry" />
        </mxCell>
        <mxCell id="oa0vE_YfLMu9OCanx_ZE-86" style="edgeStyle=orthogonalEdgeStyle;rounded=0;orthogonalLoop=1;jettySize=auto;html=1;exitX=0.25;exitY=1;exitDx=0;exitDy=0;entryX=0;entryY=0.5;entryDx=0;entryDy=0;" parent="1" source="oa0vE_YfLMu9OCanx_ZE-5" target="oa0vE_YfLMu9OCanx_ZE-79" edge="1">
          <mxGeometry relative="1" as="geometry" />
        </mxCell>
        <mxCell id="oa0vE_YfLMu9OCanx_ZE-87" style="edgeStyle=orthogonalEdgeStyle;rounded=0;orthogonalLoop=1;jettySize=auto;html=1;exitX=0.25;exitY=1;exitDx=0;exitDy=0;entryX=0;entryY=0.5;entryDx=0;entryDy=0;" parent="1" source="oa0vE_YfLMu9OCanx_ZE-5" target="oa0vE_YfLMu9OCanx_ZE-81" edge="1">
          <mxGeometry relative="1" as="geometry" />
        </mxCell>
        <mxCell id="oa0vE_YfLMu9OCanx_ZE-5" value="тестирование" style="rounded=0;whiteSpace=wrap;html=1;" parent="1" vertex="1">
          <mxGeometry x="750" y="150" width="120" height="60" as="geometry" />
        </mxCell>
        <mxCell id="oa0vE_YfLMu9OCanx_ZE-12" value="анализ стейкхолдеров" style="rounded=0;whiteSpace=wrap;html=1;" parent="1" vertex="1">
          <mxGeometry x="-160" y="230" width="120" height="60" as="geometry" />
        </mxCell>
        <mxCell id="oa0vE_YfLMu9OCanx_ZE-13" value="анализ требований визуальной части" style="rounded=0;whiteSpace=wrap;html=1;" parent="1" vertex="1">
          <mxGeometry x="-160" y="480" width="120" height="60" as="geometry" />
        </mxCell>
        <mxCell id="oa0vE_YfLMu9OCanx_ZE-14" value="анализ требований програмной части" style="rounded=0;whiteSpace=wrap;html=1;" parent="1" vertex="1">
          <mxGeometry x="-160" y="570" width="120" height="60" as="geometry" />
        </mxCell>
        <mxCell id="oa0vE_YfLMu9OCanx_ZE-15" value="анализ аппаратных требований к сайту" style="rounded=0;whiteSpace=wrap;html=1;" parent="1" vertex="1">
          <mxGeometry x="-160" y="660" width="120" height="60" as="geometry" />
        </mxCell>
        <mxCell id="oa0vE_YfLMu9OCanx_ZE-16" value="анализ финансовой составляющей" style="rounded=0;whiteSpace=wrap;html=1;" parent="1" vertex="1">
          <mxGeometry x="-160" y="320" width="120" height="60" as="geometry" />
        </mxCell>
        <mxCell id="oa0vE_YfLMu9OCanx_ZE-17" value="анализ рисков дальнейших этапов создания сайта" style="rounded=0;whiteSpace=wrap;html=1;" parent="1" vertex="1">
          <mxGeometry x="-160" y="400" width="120" height="60" as="geometry" />
        </mxCell>
        <mxCell id="oa0vE_YfLMu9OCanx_ZE-38" style="edgeStyle=orthogonalEdgeStyle;rounded=0;orthogonalLoop=1;jettySize=auto;html=1;exitX=0.5;exitY=1;exitDx=0;exitDy=0;entryX=1;entryY=0.5;entryDx=0;entryDy=0;" parent="1" source="oa0vE_YfLMu9OCanx_ZE-24" target="oa0vE_YfLMu9OCanx_ZE-36" edge="1">
          <mxGeometry relative="1" as="geometry" />
        </mxCell>
        <mxCell id="oa0vE_YfLMu9OCanx_ZE-39" style="edgeStyle=orthogonalEdgeStyle;rounded=0;orthogonalLoop=1;jettySize=auto;html=1;exitX=0.5;exitY=1;exitDx=0;exitDy=0;entryX=1;entryY=0.5;entryDx=0;entryDy=0;" parent="1" source="oa0vE_YfLMu9OCanx_ZE-24" target="oa0vE_YfLMu9OCanx_ZE-37" edge="1">
          <mxGeometry relative="1" as="geometry" />
        </mxCell>
        <mxCell id="oa0vE_YfLMu9OCanx_ZE-24" value="проектирование&amp;nbsp; интерфейса модулей сайта" style="rounded=0;whiteSpace=wrap;html=1;" parent="1" vertex="1">
          <mxGeometry x="100" y="530" width="120" height="60" as="geometry" />
        </mxCell>
        <mxCell id="oa0vE_YfLMu9OCanx_ZE-28" value="проектирование структуры данных" style="rounded=0;whiteSpace=wrap;html=1;" parent="1" vertex="1">
          <mxGeometry x="100" y="750" width="120" height="60" as="geometry" />
        </mxCell>
        <mxCell id="oa0vE_YfLMu9OCanx_ZE-34" style="edgeStyle=orthogonalEdgeStyle;rounded=0;orthogonalLoop=1;jettySize=auto;html=1;exitX=0.5;exitY=1;exitDx=0;exitDy=0;entryX=1;entryY=0.5;entryDx=0;entryDy=0;" parent="1" source="oa0vE_YfLMu9OCanx_ZE-29" target="oa0vE_YfLMu9OCanx_ZE-33" edge="1">
          <mxGeometry relative="1" as="geometry" />
        </mxCell>
        <mxCell id="oa0vE_YfLMu9OCanx_ZE-35" style="edgeStyle=orthogonalEdgeStyle;rounded=0;orthogonalLoop=1;jettySize=auto;html=1;exitX=0.5;exitY=1;exitDx=0;exitDy=0;entryX=1;entryY=0.5;entryDx=0;entryDy=0;" parent="1" source="oa0vE_YfLMu9OCanx_ZE-29" target="oa0vE_YfLMu9OCanx_ZE-32" edge="1">
          <mxGeometry relative="1" as="geometry" />
        </mxCell>
        <mxCell id="oa0vE_YfLMu9OCanx_ZE-29" value="проектирование функционала модулей сайта" style="rounded=0;whiteSpace=wrap;html=1;" parent="1" vertex="1">
          <mxGeometry x="100" y="320" width="120" height="60" as="geometry" />
        </mxCell>
        <mxCell id="oa0vE_YfLMu9OCanx_ZE-32" value="функционал клиента" style="rounded=0;whiteSpace=wrap;html=1;" parent="1" vertex="1">
          <mxGeometry x="20" y="460" width="120" height="60" as="geometry" />
        </mxCell>
        <mxCell id="oa0vE_YfLMu9OCanx_ZE-33" value="функционал персонала" style="rounded=0;whiteSpace=wrap;html=1;" parent="1" vertex="1">
          <mxGeometry x="20" y="390" width="120" height="60" as="geometry" />
        </mxCell>
        <mxCell id="oa0vE_YfLMu9OCanx_ZE-36" value="интерфейс клиента" style="rounded=0;whiteSpace=wrap;html=1;" parent="1" vertex="1">
          <mxGeometry x="20" y="610" width="120" height="60" as="geometry" />
        </mxCell>
        <mxCell id="oa0vE_YfLMu9OCanx_ZE-37" value="интерфейс персонала" style="rounded=0;whiteSpace=wrap;html=1;" parent="1" vertex="1">
          <mxGeometry x="20" y="680" width="120" height="60" as="geometry" />
        </mxCell>
        <mxCell id="oa0vE_YfLMu9OCanx_ZE-47" style="edgeStyle=orthogonalEdgeStyle;rounded=0;orthogonalLoop=1;jettySize=auto;html=1;exitX=0.5;exitY=1;exitDx=0;exitDy=0;entryX=0;entryY=0.5;entryDx=0;entryDy=0;" parent="1" source="oa0vE_YfLMu9OCanx_ZE-43" target="oa0vE_YfLMu9OCanx_ZE-45" edge="1">
          <mxGeometry relative="1" as="geometry" />
        </mxCell>
        <mxCell id="oa0vE_YfLMu9OCanx_ZE-48" style="edgeStyle=orthogonalEdgeStyle;rounded=0;orthogonalLoop=1;jettySize=auto;html=1;exitX=0.5;exitY=1;exitDx=0;exitDy=0;entryX=0;entryY=0.5;entryDx=0;entryDy=0;" parent="1" source="oa0vE_YfLMu9OCanx_ZE-43" target="oa0vE_YfLMu9OCanx_ZE-46" edge="1">
          <mxGeometry relative="1" as="geometry" />
        </mxCell>
        <mxCell id="oa0vE_YfLMu9OCanx_ZE-43" value="реализация модуля личный кабинет" style="rounded=0;whiteSpace=wrap;html=1;" parent="1" vertex="1">
          <mxGeometry x="340" y="310" width="120" height="60" as="geometry" />
        </mxCell>
        <mxCell id="oa0vE_YfLMu9OCanx_ZE-45" value="реализация функционала для создания заказов" style="rounded=0;whiteSpace=wrap;html=1;" parent="1" vertex="1">
          <mxGeometry x="420" y="400" width="120" height="60" as="geometry" />
        </mxCell>
        <mxCell id="oa0vE_YfLMu9OCanx_ZE-46" value="реализация функционала для просмотра истории заказов" style="rounded=0;whiteSpace=wrap;html=1;" parent="1" vertex="1">
          <mxGeometry x="420" y="490" width="120" height="60" as="geometry" />
        </mxCell>
        <mxCell id="oa0vE_YfLMu9OCanx_ZE-49" value="реализация дизайна сайта" style="rounded=0;whiteSpace=wrap;html=1;" parent="1" vertex="1">
          <mxGeometry x="340" y="230" width="120" height="60" as="geometry" />
        </mxCell>
        <mxCell id="oa0vE_YfLMu9OCanx_ZE-51" style="edgeStyle=orthogonalEdgeStyle;rounded=0;orthogonalLoop=1;jettySize=auto;html=1;exitX=0.5;exitY=1;exitDx=0;exitDy=0;entryX=0;entryY=0.5;entryDx=0;entryDy=0;" parent="1" source="oa0vE_YfLMu9OCanx_ZE-53" target="oa0vE_YfLMu9OCanx_ZE-54" edge="1">
          <mxGeometry relative="1" as="geometry" />
        </mxCell>
        <mxCell id="oa0vE_YfLMu9OCanx_ZE-52" style="edgeStyle=orthogonalEdgeStyle;rounded=0;orthogonalLoop=1;jettySize=auto;html=1;exitX=0.5;exitY=1;exitDx=0;exitDy=0;entryX=0;entryY=0.5;entryDx=0;entryDy=0;" parent="1" source="oa0vE_YfLMu9OCanx_ZE-53" target="oa0vE_YfLMu9OCanx_ZE-55" edge="1">
          <mxGeometry relative="1" as="geometry" />
        </mxCell>
        <mxCell id="oa0vE_YfLMu9OCanx_ZE-57" style="edgeStyle=orthogonalEdgeStyle;rounded=0;orthogonalLoop=1;jettySize=auto;html=1;exitX=0.5;exitY=1;exitDx=0;exitDy=0;entryX=0;entryY=0.5;entryDx=0;entryDy=0;" parent="1" source="oa0vE_YfLMu9OCanx_ZE-53" target="oa0vE_YfLMu9OCanx_ZE-56" edge="1">
          <mxGeometry relative="1" as="geometry" />
        </mxCell>
        <mxCell id="oa0vE_YfLMu9OCanx_ZE-53" value="реализация модуля каталог" style="rounded=0;whiteSpace=wrap;html=1;" parent="1" vertex="1">
          <mxGeometry x="340" y="560" width="120" height="60" as="geometry" />
        </mxCell>
        <mxCell id="oa0vE_YfLMu9OCanx_ZE-54" value="реализация функционала работы с каталогом" style="rounded=0;whiteSpace=wrap;html=1;" parent="1" vertex="1">
          <mxGeometry x="420" y="650" width="120" height="60" as="geometry" />
        </mxCell>
        <mxCell id="oa0vE_YfLMu9OCanx_ZE-55" value="реализация функционала формирование заказа" style="rounded=0;whiteSpace=wrap;html=1;" parent="1" vertex="1">
          <mxGeometry x="420" y="740" width="120" height="60" as="geometry" />
        </mxCell>
        <mxCell id="oa0vE_YfLMu9OCanx_ZE-56" value="реализация функционала изменения каталога" style="rounded=0;whiteSpace=wrap;html=1;" parent="1" vertex="1">
          <mxGeometry x="420" y="820" width="120" height="60" as="geometry" />
        </mxCell>
        <mxCell id="oa0vE_YfLMu9OCanx_ZE-59" value="проектирование функционала проверки стабильности" style="rounded=0;whiteSpace=wrap;html=1;" parent="1" vertex="1">
          <mxGeometry x="100" y="830" width="120" height="60" as="geometry" />
        </mxCell>
        <mxCell id="oa0vE_YfLMu9OCanx_ZE-66" style="edgeStyle=orthogonalEdgeStyle;rounded=0;orthogonalLoop=1;jettySize=auto;html=1;exitX=0;exitY=0.5;exitDx=0;exitDy=0;entryX=0;entryY=0.5;entryDx=0;entryDy=0;" parent="1" source="oa0vE_YfLMu9OCanx_ZE-61" target="oa0vE_YfLMu9OCanx_ZE-62" edge="1">
          <mxGeometry relative="1" as="geometry">
            <Array as="points">
              <mxPoint x="580" y="260" />
              <mxPoint x="580" y="340" />
            </Array>
          </mxGeometry>
        </mxCell>
        <mxCell id="oa0vE_YfLMu9OCanx_ZE-67" style="edgeStyle=orthogonalEdgeStyle;rounded=0;orthogonalLoop=1;jettySize=auto;html=1;exitX=0;exitY=0.5;exitDx=0;exitDy=0;entryX=0;entryY=0.5;entryDx=0;entryDy=0;" parent="1" source="oa0vE_YfLMu9OCanx_ZE-61" target="oa0vE_YfLMu9OCanx_ZE-63" edge="1">
          <mxGeometry relative="1" as="geometry">
            <Array as="points">
              <mxPoint x="580" y="260" />
              <mxPoint x="580" y="430" />
            </Array>
          </mxGeometry>
        </mxCell>
        <mxCell id="oa0vE_YfLMu9OCanx_ZE-68" style="edgeStyle=orthogonalEdgeStyle;rounded=0;orthogonalLoop=1;jettySize=auto;html=1;exitX=0;exitY=0.5;exitDx=0;exitDy=0;entryX=0;entryY=0.5;entryDx=0;entryDy=0;" parent="1" source="oa0vE_YfLMu9OCanx_ZE-61" target="oa0vE_YfLMu9OCanx_ZE-64" edge="1">
          <mxGeometry relative="1" as="geometry">
            <Array as="points">
              <mxPoint x="580" y="260" />
              <mxPoint x="580" y="520" />
            </Array>
          </mxGeometry>
        </mxCell>
        <mxCell id="oa0vE_YfLMu9OCanx_ZE-61" value="реализация модуля заказ" style="rounded=0;whiteSpace=wrap;html=1;" parent="1" vertex="1">
          <mxGeometry x="590" y="230" width="120" height="60" as="geometry" />
        </mxCell>
        <mxCell id="oa0vE_YfLMu9OCanx_ZE-62" value="реализация функционала оплаты" style="rounded=0;whiteSpace=wrap;html=1;" parent="1" vertex="1">
          <mxGeometry x="630" y="310" width="120" height="60" as="geometry" />
        </mxCell>
        <mxCell id="oa0vE_YfLMu9OCanx_ZE-63" value="реализация отслеживания стадий выполнения заказа" style="rounded=0;whiteSpace=wrap;html=1;" parent="1" vertex="1">
          <mxGeometry x="630" y="400" width="120" height="60" as="geometry" />
        </mxCell>
        <mxCell id="oa0vE_YfLMu9OCanx_ZE-64" value="реализация функционала взаимодействия с заказами" style="rounded=0;whiteSpace=wrap;html=1;" parent="1" vertex="1">
          <mxGeometry x="630" y="490" width="120" height="60" as="geometry" />
        </mxCell>
        <mxCell id="oa0vE_YfLMu9OCanx_ZE-74" style="edgeStyle=orthogonalEdgeStyle;rounded=0;orthogonalLoop=1;jettySize=auto;html=1;exitX=0.25;exitY=1;exitDx=0;exitDy=0;entryX=0;entryY=0.5;entryDx=0;entryDy=0;" parent="1" source="oa0vE_YfLMu9OCanx_ZE-69" target="oa0vE_YfLMu9OCanx_ZE-70" edge="1">
          <mxGeometry relative="1" as="geometry">
            <Array as="points">
              <mxPoint x="620" y="680" />
            </Array>
          </mxGeometry>
        </mxCell>
        <mxCell id="oa0vE_YfLMu9OCanx_ZE-75" style="edgeStyle=orthogonalEdgeStyle;rounded=0;orthogonalLoop=1;jettySize=auto;html=1;exitX=0.25;exitY=1;exitDx=0;exitDy=0;entryX=0;entryY=0.5;entryDx=0;entryDy=0;" parent="1" source="oa0vE_YfLMu9OCanx_ZE-69" target="oa0vE_YfLMu9OCanx_ZE-73" edge="1">
          <mxGeometry relative="1" as="geometry">
            <Array as="points">
              <mxPoint x="620" y="770" />
            </Array>
          </mxGeometry>
        </mxCell>
        <mxCell id="oa0vE_YfLMu9OCanx_ZE-69" value="реализация проверки стабильности" style="rounded=0;whiteSpace=wrap;html=1;" parent="1" vertex="1">
          <mxGeometry x="590" y="560" width="120" height="60" as="geometry" />
        </mxCell>
        <mxCell id="oa0vE_YfLMu9OCanx_ZE-70" value="создание функционала проверки работы БД и ошибок в ней" style="rounded=0;whiteSpace=wrap;html=1;" parent="1" vertex="1">
          <mxGeometry x="640" y="650" width="120" height="60" as="geometry" />
        </mxCell>
        <mxCell id="oa0vE_YfLMu9OCanx_ZE-73" value="реализация проверки работы серверов" style="rounded=0;whiteSpace=wrap;html=1;" parent="1" vertex="1">
          <mxGeometry x="640" y="740" width="120" height="60" as="geometry" />
        </mxCell>
        <mxCell id="oa0vE_YfLMu9OCanx_ZE-76" value="тестирование интерфейсных составляющих сайта" style="rounded=0;whiteSpace=wrap;html=1;" parent="1" vertex="1">
          <mxGeometry x="810" y="230" width="120" height="60" as="geometry" />
        </mxCell>
        <mxCell id="oa0vE_YfLMu9OCanx_ZE-77" value="проверка верности структуры данных" style="rounded=0;whiteSpace=wrap;html=1;" parent="1" vertex="1">
          <mxGeometry x="810" y="330" width="120" height="60" as="geometry" />
        </mxCell>
        <mxCell id="oa0vE_YfLMu9OCanx_ZE-78" value="проверка корректной работы функционала сайта" style="rounded=0;whiteSpace=wrap;html=1;" parent="1" vertex="1">
          <mxGeometry x="810" y="440" width="120" height="60" as="geometry" />
        </mxCell>
        <mxCell id="oa0vE_YfLMu9OCanx_ZE-79" value="проверка корректного взаимодействия сайта с БД&amp;nbsp;" style="rounded=0;whiteSpace=wrap;html=1;" parent="1" vertex="1">
          <mxGeometry x="810" y="540" width="120" height="60" as="geometry" />
        </mxCell>
        <mxCell id="oa0vE_YfLMu9OCanx_ZE-81" value="тестирование проверки стабильности" style="rounded=0;whiteSpace=wrap;html=1;" parent="1" vertex="1">
          <mxGeometry x="810" y="650" width="120" height="60" as="geometry" />
        </mxCell>
        <mxCell id="oa0vE_YfLMu9OCanx_ZE-88" value="проектирование архитектуры" style="rounded=0;whiteSpace=wrap;html=1;" parent="1" vertex="1">
          <mxGeometry x="100" y="230" width="120" height="60" as="geometry" />
        </mxCell>
      </root>
    </mxGraphModel>
  </diagram>
  <diagram id="dwjz9D7Bcxl8cZRYMpIT" name="Page-2">
    <mxGraphModel dx="1278" dy="547" grid="1" gridSize="10" guides="1" tooltips="1" connect="1" arrows="1" fold="1" page="1" pageScale="1" pageWidth="827" pageHeight="1169" math="0" shadow="0">
      <root>
        <mxCell id="y4Bw7Z6qFePfMxJJef1A-0" />
        <mxCell id="y4Bw7Z6qFePfMxJJef1A-1" parent="y4Bw7Z6qFePfMxJJef1A-0" />
        <mxCell id="y4Bw7Z6qFePfMxJJef1A-2" value="01" style="swimlane;fontStyle=0;childLayout=stackLayout;horizontal=1;startSize=30;horizontalStack=0;resizeParent=1;resizeParentMax=0;resizeLast=0;collapsible=1;marginBottom=0;" vertex="1" parent="y4Bw7Z6qFePfMxJJef1A-1">
          <mxGeometry x="30" y="90" width="140" height="60" as="geometry" />
        </mxCell>
        <mxCell id="y4Bw7Z6qFePfMxJJef1A-3" value="Планирование работ" style="text;strokeColor=none;fillColor=none;align=left;verticalAlign=middle;spacingLeft=4;spacingRight=4;overflow=hidden;points=[[0,0.5],[1,0.5]];portConstraint=eastwest;rotatable=0;" vertex="1" parent="y4Bw7Z6qFePfMxJJef1A-2">
          <mxGeometry y="30" width="140" height="30" as="geometry" />
        </mxCell>
        <mxCell id="y4Bw7Z6qFePfMxJJef1A-6" value="02" style="swimlane;fontStyle=0;childLayout=stackLayout;horizontal=1;startSize=30;horizontalStack=0;resizeParent=1;resizeParentMax=0;resizeLast=0;collapsible=1;marginBottom=0;" vertex="1" parent="y4Bw7Z6qFePfMxJJef1A-1">
          <mxGeometry x="210" y="90" width="140" height="60" as="geometry" />
        </mxCell>
        <mxCell id="y4Bw7Z6qFePfMxJJef1A-7" value="Проектирование" style="text;strokeColor=none;fillColor=none;align=left;verticalAlign=middle;spacingLeft=4;spacingRight=4;overflow=hidden;points=[[0,0.5],[1,0.5]];portConstraint=eastwest;rotatable=0;" vertex="1" parent="y4Bw7Z6qFePfMxJJef1A-6">
          <mxGeometry y="30" width="140" height="30" as="geometry" />
        </mxCell>
        <mxCell id="y4Bw7Z6qFePfMxJJef1A-8" value="03" style="swimlane;fontStyle=0;childLayout=stackLayout;horizontal=1;startSize=30;horizontalStack=0;resizeParent=1;resizeParentMax=0;resizeLast=0;collapsible=1;marginBottom=0;" vertex="1" parent="y4Bw7Z6qFePfMxJJef1A-1">
          <mxGeometry x="390" y="90" width="140" height="60" as="geometry" />
        </mxCell>
        <mxCell id="y4Bw7Z6qFePfMxJJef1A-9" value="Разработка" style="text;strokeColor=none;fillColor=none;align=left;verticalAlign=middle;spacingLeft=4;spacingRight=4;overflow=hidden;points=[[0,0.5],[1,0.5]];portConstraint=eastwest;rotatable=0;" vertex="1" parent="y4Bw7Z6qFePfMxJJef1A-8">
          <mxGeometry y="30" width="140" height="30" as="geometry" />
        </mxCell>
        <mxCell id="y4Bw7Z6qFePfMxJJef1A-10" value="04" style="swimlane;fontStyle=0;childLayout=stackLayout;horizontal=1;startSize=30;horizontalStack=0;resizeParent=1;resizeParentMax=0;resizeLast=0;collapsible=1;marginBottom=0;" vertex="1" parent="y4Bw7Z6qFePfMxJJef1A-1">
          <mxGeometry x="560" y="90" width="140" height="60" as="geometry" />
        </mxCell>
        <mxCell id="y4Bw7Z6qFePfMxJJef1A-11" value="Тестирование" style="text;strokeColor=none;fillColor=none;align=left;verticalAlign=middle;spacingLeft=4;spacingRight=4;overflow=hidden;points=[[0,0.5],[1,0.5]];portConstraint=eastwest;rotatable=0;" vertex="1" parent="y4Bw7Z6qFePfMxJJef1A-10">
          <mxGeometry y="30" width="140" height="30" as="geometry" />
        </mxCell>
        <mxCell id="y4Bw7Z6qFePfMxJJef1A-13" style="edgeStyle=orthogonalEdgeStyle;rounded=0;orthogonalLoop=1;jettySize=auto;html=1;exitX=1;exitY=0.5;exitDx=0;exitDy=0;entryX=0;entryY=0.5;entryDx=0;entryDy=0;" edge="1" parent="y4Bw7Z6qFePfMxJJef1A-1" source="y4Bw7Z6qFePfMxJJef1A-3" target="y4Bw7Z6qFePfMxJJef1A-7">
          <mxGeometry relative="1" as="geometry" />
        </mxCell>
        <mxCell id="y4Bw7Z6qFePfMxJJef1A-14" style="edgeStyle=orthogonalEdgeStyle;rounded=0;orthogonalLoop=1;jettySize=auto;html=1;exitX=1;exitY=0.5;exitDx=0;exitDy=0;entryX=0;entryY=0.5;entryDx=0;entryDy=0;" edge="1" parent="y4Bw7Z6qFePfMxJJef1A-1" source="y4Bw7Z6qFePfMxJJef1A-7" target="y4Bw7Z6qFePfMxJJef1A-9">
          <mxGeometry relative="1" as="geometry" />
        </mxCell>
        <mxCell id="y4Bw7Z6qFePfMxJJef1A-15" style="edgeStyle=orthogonalEdgeStyle;rounded=0;orthogonalLoop=1;jettySize=auto;html=1;exitX=1;exitY=0.5;exitDx=0;exitDy=0;entryX=0;entryY=0.5;entryDx=0;entryDy=0;" edge="1" parent="y4Bw7Z6qFePfMxJJef1A-1" source="y4Bw7Z6qFePfMxJJef1A-9" target="y4Bw7Z6qFePfMxJJef1A-11">
          <mxGeometry relative="1" as="geometry" />
        </mxCell>
        <mxCell id="y4Bw7Z6qFePfMxJJef1A-16" value="05" style="swimlane;fontStyle=0;childLayout=stackLayout;horizontal=1;startSize=30;horizontalStack=0;resizeParent=1;resizeParentMax=0;resizeLast=0;collapsible=1;marginBottom=0;" vertex="1" parent="y4Bw7Z6qFePfMxJJef1A-1">
          <mxGeometry x="740" y="90" width="180" height="60" as="geometry" />
        </mxCell>
        <mxCell id="y4Bw7Z6qFePfMxJJef1A-17" value="Подготовка к эксплуатации" style="text;strokeColor=none;fillColor=none;align=left;verticalAlign=middle;spacingLeft=4;spacingRight=4;overflow=hidden;points=[[0,0.5],[1,0.5]];portConstraint=eastwest;rotatable=0;" vertex="1" parent="y4Bw7Z6qFePfMxJJef1A-16">
          <mxGeometry y="30" width="180" height="30" as="geometry" />
        </mxCell>
        <mxCell id="y4Bw7Z6qFePfMxJJef1A-18" style="edgeStyle=orthogonalEdgeStyle;rounded=0;orthogonalLoop=1;jettySize=auto;html=1;exitX=1;exitY=0.5;exitDx=0;exitDy=0;entryX=0;entryY=0.5;entryDx=0;entryDy=0;" edge="1" parent="y4Bw7Z6qFePfMxJJef1A-1" source="y4Bw7Z6qFePfMxJJef1A-11" target="y4Bw7Z6qFePfMxJJef1A-17">
          <mxGeometry relative="1" as="geometry" />
        </mxCell>
        <mxCell id="y4Bw7Z6qFePfMxJJef1A-19" value="01.1" style="swimlane;fontStyle=0;childLayout=stackLayout;horizontal=1;startSize=30;horizontalStack=0;resizeParent=1;resizeParentMax=0;resizeLast=0;collapsible=1;marginBottom=0;" vertex="1" parent="y4Bw7Z6qFePfMxJJef1A-1">
          <mxGeometry x="30" y="250" width="140" height="60" as="geometry" />
        </mxCell>
        <mxCell id="y4Bw7Z6qFePfMxJJef1A-20" value="Анализ стейкхолдеров" style="text;strokeColor=none;fillColor=none;align=left;verticalAlign=middle;spacingLeft=4;spacingRight=4;overflow=hidden;points=[[0,0.5],[1,0.5]];portConstraint=eastwest;rotatable=0;" vertex="1" parent="y4Bw7Z6qFePfMxJJef1A-19">
          <mxGeometry y="30" width="140" height="30" as="geometry" />
        </mxCell>
        <mxCell id="y4Bw7Z6qFePfMxJJef1A-21" value="01.2" style="swimlane;fontStyle=0;childLayout=stackLayout;horizontal=1;startSize=30;horizontalStack=0;resizeParent=1;resizeParentMax=0;resizeLast=0;collapsible=1;marginBottom=0;" vertex="1" parent="y4Bw7Z6qFePfMxJJef1A-1">
          <mxGeometry x="200" y="235" width="140" height="90" as="geometry" />
        </mxCell>
        <mxCell id="y4Bw7Z6qFePfMxJJef1A-22" value="Анализ финансовой&#xa;составляющей" style="text;strokeColor=none;fillColor=none;align=left;verticalAlign=middle;spacingLeft=4;spacingRight=4;overflow=hidden;points=[[0,0.5],[1,0.5]];portConstraint=eastwest;rotatable=0;" vertex="1" parent="y4Bw7Z6qFePfMxJJef1A-21">
          <mxGeometry y="30" width="140" height="60" as="geometry" />
        </mxCell>
        <mxCell id="y4Bw7Z6qFePfMxJJef1A-23" value="01.3" style="swimlane;fontStyle=0;childLayout=stackLayout;horizontal=1;startSize=30;horizontalStack=0;resizeParent=1;resizeParentMax=0;resizeLast=0;collapsible=1;marginBottom=0;" vertex="1" parent="y4Bw7Z6qFePfMxJJef1A-1">
          <mxGeometry x="370" y="250" width="140" height="60" as="geometry" />
        </mxCell>
        <mxCell id="y4Bw7Z6qFePfMxJJef1A-24" value="Анализ рисков" style="text;strokeColor=none;fillColor=none;align=left;verticalAlign=middle;spacingLeft=4;spacingRight=4;overflow=hidden;points=[[0,0.5],[1,0.5]];portConstraint=eastwest;rotatable=0;" vertex="1" parent="y4Bw7Z6qFePfMxJJef1A-23">
          <mxGeometry y="30" width="140" height="30" as="geometry" />
        </mxCell>
        <mxCell id="y4Bw7Z6qFePfMxJJef1A-25" value="01.4" style="swimlane;fontStyle=0;childLayout=stackLayout;horizontal=1;startSize=30;horizontalStack=0;resizeParent=1;resizeParentMax=0;resizeLast=0;collapsible=1;marginBottom=0;" vertex="1" parent="y4Bw7Z6qFePfMxJJef1A-1">
          <mxGeometry x="550" y="200" width="180" height="60" as="geometry" />
        </mxCell>
        <mxCell id="y4Bw7Z6qFePfMxJJef1A-26" value="Анализ требований&#xa; визуальной части" style="text;strokeColor=none;fillColor=none;align=left;verticalAlign=middle;spacingLeft=4;spacingRight=4;overflow=hidden;points=[[0,0.5],[1,0.5]];portConstraint=eastwest;rotatable=0;" vertex="1" parent="y4Bw7Z6qFePfMxJJef1A-25">
          <mxGeometry y="30" width="180" height="30" as="geometry" />
        </mxCell>
        <mxCell id="y4Bw7Z6qFePfMxJJef1A-29" style="edgeStyle=orthogonalEdgeStyle;rounded=0;orthogonalLoop=1;jettySize=auto;html=1;exitX=1;exitY=0.5;exitDx=0;exitDy=0;entryX=0;entryY=0.5;entryDx=0;entryDy=0;" edge="1" parent="y4Bw7Z6qFePfMxJJef1A-1" source="y4Bw7Z6qFePfMxJJef1A-24" target="y4Bw7Z6qFePfMxJJef1A-26">
          <mxGeometry relative="1" as="geometry" />
        </mxCell>
        <mxCell id="y4Bw7Z6qFePfMxJJef1A-30" value="01.5" style="swimlane;fontStyle=0;childLayout=stackLayout;horizontal=1;startSize=30;horizontalStack=0;resizeParent=1;resizeParentMax=0;resizeLast=0;collapsible=1;marginBottom=0;" vertex="1" parent="y4Bw7Z6qFePfMxJJef1A-1">
          <mxGeometry x="550" y="300" width="180" height="60" as="geometry" />
        </mxCell>
        <mxCell id="y4Bw7Z6qFePfMxJJef1A-31" value="Анализ требований&#xa; функциональной части" style="text;strokeColor=none;fillColor=none;align=left;verticalAlign=middle;spacingLeft=4;spacingRight=4;overflow=hidden;points=[[0,0.5],[1,0.5]];portConstraint=eastwest;rotatable=0;" vertex="1" parent="y4Bw7Z6qFePfMxJJef1A-30">
          <mxGeometry y="30" width="180" height="30" as="geometry" />
        </mxCell>
        <mxCell id="y4Bw7Z6qFePfMxJJef1A-34" style="edgeStyle=orthogonalEdgeStyle;rounded=0;orthogonalLoop=1;jettySize=auto;html=1;exitX=1;exitY=0.5;exitDx=0;exitDy=0;entryX=0;entryY=0.5;entryDx=0;entryDy=0;" edge="1" parent="y4Bw7Z6qFePfMxJJef1A-1" source="y4Bw7Z6qFePfMxJJef1A-20" target="y4Bw7Z6qFePfMxJJef1A-22">
          <mxGeometry relative="1" as="geometry" />
        </mxCell>
        <mxCell id="y4Bw7Z6qFePfMxJJef1A-36" style="edgeStyle=orthogonalEdgeStyle;rounded=0;orthogonalLoop=1;jettySize=auto;html=1;exitX=1;exitY=0.5;exitDx=0;exitDy=0;entryX=0;entryY=0.5;entryDx=0;entryDy=0;" edge="1" parent="y4Bw7Z6qFePfMxJJef1A-1" source="y4Bw7Z6qFePfMxJJef1A-22" target="y4Bw7Z6qFePfMxJJef1A-24">
          <mxGeometry relative="1" as="geometry" />
        </mxCell>
        <mxCell id="y4Bw7Z6qFePfMxJJef1A-37" style="edgeStyle=orthogonalEdgeStyle;rounded=0;orthogonalLoop=1;jettySize=auto;html=1;exitX=1;exitY=0.5;exitDx=0;exitDy=0;entryX=0;entryY=0.5;entryDx=0;entryDy=0;" edge="1" parent="y4Bw7Z6qFePfMxJJef1A-1" source="y4Bw7Z6qFePfMxJJef1A-24" target="y4Bw7Z6qFePfMxJJef1A-31">
          <mxGeometry relative="1" as="geometry" />
        </mxCell>
        <mxCell id="y4Bw7Z6qFePfMxJJef1A-38" value="01.6" style="swimlane;fontStyle=0;childLayout=stackLayout;horizontal=1;startSize=30;horizontalStack=0;resizeParent=1;resizeParentMax=0;resizeLast=0;collapsible=1;marginBottom=0;" vertex="1" parent="y4Bw7Z6qFePfMxJJef1A-1">
          <mxGeometry x="770" y="250" width="160" height="60" as="geometry" />
        </mxCell>
        <mxCell id="y4Bw7Z6qFePfMxJJef1A-39" value="Анализ аппаратных &#xa;требований к программе" style="text;strokeColor=none;fillColor=none;align=left;verticalAlign=middle;spacingLeft=4;spacingRight=4;overflow=hidden;points=[[0,0.5],[1,0.5]];portConstraint=eastwest;rotatable=0;" vertex="1" parent="y4Bw7Z6qFePfMxJJef1A-38">
          <mxGeometry y="30" width="160" height="30" as="geometry" />
        </mxCell>
        <mxCell id="y4Bw7Z6qFePfMxJJef1A-40" style="edgeStyle=orthogonalEdgeStyle;rounded=0;orthogonalLoop=1;jettySize=auto;html=1;exitX=1;exitY=0.5;exitDx=0;exitDy=0;entryX=0;entryY=0.5;entryDx=0;entryDy=0;" edge="1" parent="y4Bw7Z6qFePfMxJJef1A-1" source="y4Bw7Z6qFePfMxJJef1A-26" target="y4Bw7Z6qFePfMxJJef1A-39">
          <mxGeometry relative="1" as="geometry" />
        </mxCell>
        <mxCell id="y4Bw7Z6qFePfMxJJef1A-41" style="edgeStyle=orthogonalEdgeStyle;rounded=0;orthogonalLoop=1;jettySize=auto;html=1;exitX=1;exitY=0.5;exitDx=0;exitDy=0;entryX=0;entryY=0.5;entryDx=0;entryDy=0;" edge="1" parent="y4Bw7Z6qFePfMxJJef1A-1" source="y4Bw7Z6qFePfMxJJef1A-31" target="y4Bw7Z6qFePfMxJJef1A-39">
          <mxGeometry relative="1" as="geometry" />
        </mxCell>
        <mxCell id="y4Bw7Z6qFePfMxJJef1A-42" style="edgeStyle=orthogonalEdgeStyle;rounded=0;orthogonalLoop=1;jettySize=auto;html=1;exitX=1;exitY=0.5;exitDx=0;exitDy=0;entryX=0;entryY=0.5;entryDx=0;entryDy=0;" edge="1" parent="y4Bw7Z6qFePfMxJJef1A-1" source="y4Bw7Z6qFePfMxJJef1A-39" target="y4Bw7Z6qFePfMxJJef1A-44">
          <mxGeometry relative="1" as="geometry">
            <mxPoint x="50" y="490" as="targetPoint" />
            <Array as="points">
              <mxPoint x="950" y="295" />
              <mxPoint x="950" y="400" />
              <mxPoint x="50" y="400" />
              <mxPoint x="50" y="545" />
            </Array>
          </mxGeometry>
        </mxCell>
        <mxCell id="y4Bw7Z6qFePfMxJJef1A-43" value="02.1" style="swimlane;fontStyle=0;childLayout=stackLayout;horizontal=1;startSize=30;horizontalStack=0;resizeParent=1;resizeParentMax=0;resizeLast=0;collapsible=1;marginBottom=0;" vertex="1" parent="y4Bw7Z6qFePfMxJJef1A-1">
          <mxGeometry x="70" y="500" width="140" height="60" as="geometry" />
        </mxCell>
        <mxCell id="y4Bw7Z6qFePfMxJJef1A-44" value="Проектирование &#xa;архитектуры системы" style="text;strokeColor=none;fillColor=none;align=left;verticalAlign=middle;spacingLeft=4;spacingRight=4;overflow=hidden;points=[[0,0.5],[1,0.5]];portConstraint=eastwest;rotatable=0;" vertex="1" parent="y4Bw7Z6qFePfMxJJef1A-43">
          <mxGeometry y="30" width="140" height="30" as="geometry" />
        </mxCell>
        <mxCell id="y4Bw7Z6qFePfMxJJef1A-45" value="02.2.1" style="swimlane;fontStyle=0;childLayout=stackLayout;horizontal=1;startSize=30;horizontalStack=0;resizeParent=1;resizeParentMax=0;resizeLast=0;collapsible=1;marginBottom=0;" vertex="1" parent="y4Bw7Z6qFePfMxJJef1A-1">
          <mxGeometry x="240" y="430" width="140" height="90" as="geometry" />
        </mxCell>
        <mxCell id="y4Bw7Z6qFePfMxJJef1A-46" value="Проектирование &#xa;функционала модулей &#xa;сайта для персонала" style="text;strokeColor=none;fillColor=none;align=left;verticalAlign=middle;spacingLeft=4;spacingRight=4;overflow=hidden;points=[[0,0.5],[1,0.5]];portConstraint=eastwest;rotatable=0;" vertex="1" parent="y4Bw7Z6qFePfMxJJef1A-45">
          <mxGeometry y="30" width="140" height="60" as="geometry" />
        </mxCell>
        <mxCell id="y4Bw7Z6qFePfMxJJef1A-49" style="edgeStyle=orthogonalEdgeStyle;rounded=0;orthogonalLoop=1;jettySize=auto;html=1;exitX=1;exitY=0.5;exitDx=0;exitDy=0;entryX=0;entryY=0.5;entryDx=0;entryDy=0;" edge="1" parent="y4Bw7Z6qFePfMxJJef1A-1" source="y4Bw7Z6qFePfMxJJef1A-44" target="y4Bw7Z6qFePfMxJJef1A-46">
          <mxGeometry relative="1" as="geometry">
            <Array as="points">
              <mxPoint x="210" y="540" />
              <mxPoint x="220" y="540" />
              <mxPoint x="220" y="490" />
            </Array>
          </mxGeometry>
        </mxCell>
        <mxCell id="y4Bw7Z6qFePfMxJJef1A-51" value="02.2.2" style="swimlane;fontStyle=0;childLayout=stackLayout;horizontal=1;startSize=30;horizontalStack=0;resizeParent=1;resizeParentMax=0;resizeLast=0;collapsible=1;marginBottom=0;" vertex="1" parent="y4Bw7Z6qFePfMxJJef1A-1">
          <mxGeometry x="240" y="530" width="140" height="90" as="geometry" />
        </mxCell>
        <mxCell id="y4Bw7Z6qFePfMxJJef1A-52" value="Проектирование &#xa;функционала модулей &#xa;сайта для клиента" style="text;strokeColor=none;fillColor=none;align=left;verticalAlign=middle;spacingLeft=4;spacingRight=4;overflow=hidden;points=[[0,0.5],[1,0.5]];portConstraint=eastwest;rotatable=0;" vertex="1" parent="y4Bw7Z6qFePfMxJJef1A-51">
          <mxGeometry y="30" width="140" height="60" as="geometry" />
        </mxCell>
        <mxCell id="y4Bw7Z6qFePfMxJJef1A-53" style="edgeStyle=orthogonalEdgeStyle;rounded=0;orthogonalLoop=1;jettySize=auto;html=1;exitX=1;exitY=0.5;exitDx=0;exitDy=0;entryX=0;entryY=0.5;entryDx=0;entryDy=0;" edge="1" parent="y4Bw7Z6qFePfMxJJef1A-1" source="y4Bw7Z6qFePfMxJJef1A-44" target="y4Bw7Z6qFePfMxJJef1A-52">
          <mxGeometry relative="1" as="geometry">
            <Array as="points">
              <mxPoint x="210" y="540" />
              <mxPoint x="220" y="540" />
              <mxPoint x="220" y="590" />
            </Array>
          </mxGeometry>
        </mxCell>
        <mxCell id="y4Bw7Z6qFePfMxJJef1A-54" value="02.2.1" style="swimlane;fontStyle=0;childLayout=stackLayout;horizontal=1;startSize=30;horizontalStack=0;resizeParent=1;resizeParentMax=0;resizeLast=0;collapsible=1;marginBottom=0;" vertex="1" parent="y4Bw7Z6qFePfMxJJef1A-1">
          <mxGeometry x="430" y="430" width="140" height="90" as="geometry" />
        </mxCell>
        <mxCell id="y4Bw7Z6qFePfMxJJef1A-55" value="Проектирование &#xa;интерфейса модулей &#xa;сайта для персонала" style="text;strokeColor=none;fillColor=none;align=left;verticalAlign=middle;spacingLeft=4;spacingRight=4;overflow=hidden;points=[[0,0.5],[1,0.5]];portConstraint=eastwest;rotatable=0;" vertex="1" parent="y4Bw7Z6qFePfMxJJef1A-54">
          <mxGeometry y="30" width="140" height="60" as="geometry" />
        </mxCell>
        <mxCell id="y4Bw7Z6qFePfMxJJef1A-56" value="02.2.2" style="swimlane;fontStyle=0;childLayout=stackLayout;horizontal=1;startSize=30;horizontalStack=0;resizeParent=1;resizeParentMax=0;resizeLast=0;collapsible=1;marginBottom=0;" vertex="1" parent="y4Bw7Z6qFePfMxJJef1A-1">
          <mxGeometry x="430" y="530" width="140" height="90" as="geometry" />
        </mxCell>
        <mxCell id="y4Bw7Z6qFePfMxJJef1A-57" value="Проектирование &#xa;интерфейса модулей &#xa;сайта для клиента" style="text;strokeColor=none;fillColor=none;align=left;verticalAlign=middle;spacingLeft=4;spacingRight=4;overflow=hidden;points=[[0,0.5],[1,0.5]];portConstraint=eastwest;rotatable=0;" vertex="1" parent="y4Bw7Z6qFePfMxJJef1A-56">
          <mxGeometry y="30" width="140" height="60" as="geometry" />
        </mxCell>
        <mxCell id="y4Bw7Z6qFePfMxJJef1A-58" style="edgeStyle=orthogonalEdgeStyle;rounded=0;orthogonalLoop=1;jettySize=auto;html=1;exitX=1;exitY=0.5;exitDx=0;exitDy=0;entryX=0;entryY=0.5;entryDx=0;entryDy=0;" edge="1" parent="y4Bw7Z6qFePfMxJJef1A-1" source="y4Bw7Z6qFePfMxJJef1A-46" target="y4Bw7Z6qFePfMxJJef1A-57">
          <mxGeometry relative="1" as="geometry" />
        </mxCell>
        <mxCell id="y4Bw7Z6qFePfMxJJef1A-59" style="edgeStyle=orthogonalEdgeStyle;rounded=0;orthogonalLoop=1;jettySize=auto;html=1;exitX=1;exitY=0.5;exitDx=0;exitDy=0;entryX=0;entryY=0.5;entryDx=0;entryDy=0;" edge="1" parent="y4Bw7Z6qFePfMxJJef1A-1" source="y4Bw7Z6qFePfMxJJef1A-52" target="y4Bw7Z6qFePfMxJJef1A-55">
          <mxGeometry relative="1" as="geometry" />
        </mxCell>
        <mxCell id="y4Bw7Z6qFePfMxJJef1A-60" value="02.3" style="swimlane;fontStyle=0;childLayout=stackLayout;horizontal=1;startSize=30;horizontalStack=0;resizeParent=1;resizeParentMax=0;resizeLast=0;collapsible=1;marginBottom=0;" vertex="1" parent="y4Bw7Z6qFePfMxJJef1A-1">
          <mxGeometry x="610" y="490" width="140" height="60" as="geometry" />
        </mxCell>
        <mxCell id="y4Bw7Z6qFePfMxJJef1A-61" value="Проектирование &#xa;структуры данных" style="text;strokeColor=none;fillColor=none;align=left;verticalAlign=middle;spacingLeft=4;spacingRight=4;overflow=hidden;points=[[0,0.5],[1,0.5]];portConstraint=eastwest;rotatable=0;" vertex="1" parent="y4Bw7Z6qFePfMxJJef1A-60">
          <mxGeometry y="30" width="140" height="30" as="geometry" />
        </mxCell>
        <mxCell id="y4Bw7Z6qFePfMxJJef1A-62" value="02.4" style="swimlane;fontStyle=0;childLayout=stackLayout;horizontal=1;startSize=30;horizontalStack=0;resizeParent=1;resizeParentMax=0;resizeLast=0;collapsible=1;marginBottom=0;" vertex="1" parent="y4Bw7Z6qFePfMxJJef1A-1">
          <mxGeometry x="790" y="480" width="140" height="80" as="geometry" />
        </mxCell>
        <mxCell id="y4Bw7Z6qFePfMxJJef1A-63" value="Проектирование &#xa;функционала проверки &#xa;стабильности работы" style="text;strokeColor=none;fillColor=none;align=left;verticalAlign=middle;spacingLeft=4;spacingRight=4;overflow=hidden;points=[[0,0.5],[1,0.5]];portConstraint=eastwest;rotatable=0;" vertex="1" parent="y4Bw7Z6qFePfMxJJef1A-62">
          <mxGeometry y="30" width="140" height="50" as="geometry" />
        </mxCell>
        <mxCell id="y4Bw7Z6qFePfMxJJef1A-64" style="edgeStyle=orthogonalEdgeStyle;rounded=0;orthogonalLoop=1;jettySize=auto;html=1;exitX=1;exitY=0.5;exitDx=0;exitDy=0;entryX=0;entryY=0.5;entryDx=0;entryDy=0;" edge="1" parent="y4Bw7Z6qFePfMxJJef1A-1" source="y4Bw7Z6qFePfMxJJef1A-55" target="y4Bw7Z6qFePfMxJJef1A-61">
          <mxGeometry relative="1" as="geometry" />
        </mxCell>
        <mxCell id="y4Bw7Z6qFePfMxJJef1A-65" style="edgeStyle=orthogonalEdgeStyle;rounded=0;orthogonalLoop=1;jettySize=auto;html=1;exitX=1;exitY=0.5;exitDx=0;exitDy=0;" edge="1" parent="y4Bw7Z6qFePfMxJJef1A-1" source="y4Bw7Z6qFePfMxJJef1A-57">
          <mxGeometry relative="1" as="geometry">
            <mxPoint x="610" y="540" as="targetPoint" />
            <Array as="points">
              <mxPoint x="590" y="590" />
              <mxPoint x="590" y="540" />
            </Array>
          </mxGeometry>
        </mxCell>
        <mxCell id="y4Bw7Z6qFePfMxJJef1A-66" style="edgeStyle=orthogonalEdgeStyle;rounded=0;orthogonalLoop=1;jettySize=auto;html=1;exitX=1;exitY=0.5;exitDx=0;exitDy=0;entryX=0;entryY=0.5;entryDx=0;entryDy=0;" edge="1" parent="y4Bw7Z6qFePfMxJJef1A-1" source="y4Bw7Z6qFePfMxJJef1A-61" target="y4Bw7Z6qFePfMxJJef1A-63">
          <mxGeometry relative="1" as="geometry" />
        </mxCell>
        <mxCell id="y4Bw7Z6qFePfMxJJef1A-67" value="03.1" style="swimlane;fontStyle=0;childLayout=stackLayout;horizontal=1;startSize=30;horizontalStack=0;resizeParent=1;resizeParentMax=0;resizeLast=0;collapsible=1;marginBottom=0;" vertex="1" parent="y4Bw7Z6qFePfMxJJef1A-1">
          <mxGeometry x="70" y="830" width="140" height="60" as="geometry" />
        </mxCell>
        <mxCell id="y4Bw7Z6qFePfMxJJef1A-68" value="Реализация дизайна &#xa;сайта" style="text;strokeColor=none;fillColor=none;align=left;verticalAlign=middle;spacingLeft=4;spacingRight=4;overflow=hidden;points=[[0,0.5],[1,0.5]];portConstraint=eastwest;rotatable=0;" vertex="1" parent="y4Bw7Z6qFePfMxJJef1A-67">
          <mxGeometry y="30" width="140" height="30" as="geometry" />
        </mxCell>
        <mxCell id="y4Bw7Z6qFePfMxJJef1A-69" style="edgeStyle=orthogonalEdgeStyle;rounded=0;orthogonalLoop=1;jettySize=auto;html=1;exitX=1;exitY=0.5;exitDx=0;exitDy=0;entryX=0;entryY=0.5;entryDx=0;entryDy=0;" edge="1" parent="y4Bw7Z6qFePfMxJJef1A-1" source="y4Bw7Z6qFePfMxJJef1A-63" target="y4Bw7Z6qFePfMxJJef1A-68">
          <mxGeometry relative="1" as="geometry">
            <Array as="points">
              <mxPoint x="950" y="535" />
              <mxPoint x="950" y="640" />
              <mxPoint x="50" y="640" />
              <mxPoint x="50" y="875" />
            </Array>
          </mxGeometry>
        </mxCell>
        <mxCell id="y4Bw7Z6qFePfMxJJef1A-70" value="03.2.1" style="swimlane;fontStyle=0;childLayout=stackLayout;horizontal=1;startSize=30;horizontalStack=0;resizeParent=1;resizeParentMax=0;resizeLast=0;collapsible=1;marginBottom=0;" vertex="1" parent="y4Bw7Z6qFePfMxJJef1A-1">
          <mxGeometry x="240" y="760" width="160" height="90" as="geometry" />
        </mxCell>
        <mxCell id="y4Bw7Z6qFePfMxJJef1A-71" value="Реализация функционала&#xa;для создания заказов " style="text;strokeColor=none;fillColor=none;align=left;verticalAlign=middle;spacingLeft=4;spacingRight=4;overflow=hidden;points=[[0,0.5],[1,0.5]];portConstraint=eastwest;rotatable=0;" vertex="1" parent="y4Bw7Z6qFePfMxJJef1A-70">
          <mxGeometry y="30" width="160" height="60" as="geometry" />
        </mxCell>
        <mxCell id="y4Bw7Z6qFePfMxJJef1A-72" value="03.2.2" style="swimlane;fontStyle=0;childLayout=stackLayout;horizontal=1;startSize=30;horizontalStack=0;resizeParent=1;resizeParentMax=0;resizeLast=0;collapsible=1;marginBottom=0;" vertex="1" parent="y4Bw7Z6qFePfMxJJef1A-1">
          <mxGeometry x="240" y="860" width="160" height="90" as="geometry" />
        </mxCell>
        <mxCell id="y4Bw7Z6qFePfMxJJef1A-73" value="Реализация функционала&#xa;для просмотра истории &#xa;заказов" style="text;strokeColor=none;fillColor=none;align=left;verticalAlign=middle;spacingLeft=4;spacingRight=4;overflow=hidden;points=[[0,0.5],[1,0.5]];portConstraint=eastwest;rotatable=0;" vertex="1" parent="y4Bw7Z6qFePfMxJJef1A-72">
          <mxGeometry y="30" width="160" height="60" as="geometry" />
        </mxCell>
        <mxCell id="y4Bw7Z6qFePfMxJJef1A-75" style="edgeStyle=orthogonalEdgeStyle;rounded=0;orthogonalLoop=1;jettySize=auto;html=1;exitX=1;exitY=0.5;exitDx=0;exitDy=0;entryX=0;entryY=0.5;entryDx=0;entryDy=0;" edge="1" parent="y4Bw7Z6qFePfMxJJef1A-1" source="y4Bw7Z6qFePfMxJJef1A-68" target="y4Bw7Z6qFePfMxJJef1A-71">
          <mxGeometry relative="1" as="geometry">
            <Array as="points">
              <mxPoint x="220" y="875" />
              <mxPoint x="220" y="820" />
            </Array>
          </mxGeometry>
        </mxCell>
        <mxCell id="y4Bw7Z6qFePfMxJJef1A-76" style="edgeStyle=orthogonalEdgeStyle;rounded=0;orthogonalLoop=1;jettySize=auto;html=1;exitX=1;exitY=0.5;exitDx=0;exitDy=0;entryX=0;entryY=0.5;entryDx=0;entryDy=0;" edge="1" parent="y4Bw7Z6qFePfMxJJef1A-1" source="y4Bw7Z6qFePfMxJJef1A-68" target="y4Bw7Z6qFePfMxJJef1A-73">
          <mxGeometry relative="1" as="geometry">
            <Array as="points">
              <mxPoint x="220" y="875" />
              <mxPoint x="220" y="920" />
            </Array>
          </mxGeometry>
        </mxCell>
        <mxCell id="y4Bw7Z6qFePfMxJJef1A-77" value="03.3.1" style="swimlane;fontStyle=0;childLayout=stackLayout;horizontal=1;startSize=30;horizontalStack=0;resizeParent=1;resizeParentMax=0;resizeLast=0;collapsible=1;marginBottom=0;" vertex="1" parent="y4Bw7Z6qFePfMxJJef1A-1">
          <mxGeometry x="450" y="700" width="160" height="90" as="geometry" />
        </mxCell>
        <mxCell id="y4Bw7Z6qFePfMxJJef1A-78" value="Реализация функционала&#xa;работы с каталогом " style="text;strokeColor=none;fillColor=none;align=left;verticalAlign=middle;spacingLeft=4;spacingRight=4;overflow=hidden;points=[[0,0.5],[1,0.5]];portConstraint=eastwest;rotatable=0;" vertex="1" parent="y4Bw7Z6qFePfMxJJef1A-77">
          <mxGeometry y="30" width="160" height="60" as="geometry" />
        </mxCell>
        <mxCell id="y4Bw7Z6qFePfMxJJef1A-79" value="03.3.2" style="swimlane;fontStyle=0;childLayout=stackLayout;horizontal=1;startSize=30;horizontalStack=0;resizeParent=1;resizeParentMax=0;resizeLast=0;collapsible=1;marginBottom=0;" vertex="1" parent="y4Bw7Z6qFePfMxJJef1A-1">
          <mxGeometry x="450" y="800" width="160" height="90" as="geometry" />
        </mxCell>
        <mxCell id="y4Bw7Z6qFePfMxJJef1A-80" value="Реализация функционала&#xa;формирования заказов" style="text;strokeColor=none;fillColor=none;align=left;verticalAlign=middle;spacingLeft=4;spacingRight=4;overflow=hidden;points=[[0,0.5],[1,0.5]];portConstraint=eastwest;rotatable=0;" vertex="1" parent="y4Bw7Z6qFePfMxJJef1A-79">
          <mxGeometry y="30" width="160" height="60" as="geometry" />
        </mxCell>
        <mxCell id="y4Bw7Z6qFePfMxJJef1A-81" value="03.3.3" style="swimlane;fontStyle=0;childLayout=stackLayout;horizontal=1;startSize=30;horizontalStack=0;resizeParent=1;resizeParentMax=0;resizeLast=0;collapsible=1;marginBottom=0;" vertex="1" parent="y4Bw7Z6qFePfMxJJef1A-1">
          <mxGeometry x="450" y="920" width="160" height="90" as="geometry" />
        </mxCell>
        <mxCell id="y4Bw7Z6qFePfMxJJef1A-82" value="Реализация функционала&#xa;изменения каталога" style="text;strokeColor=none;fillColor=none;align=left;verticalAlign=middle;spacingLeft=4;spacingRight=4;overflow=hidden;points=[[0,0.5],[1,0.5]];portConstraint=eastwest;rotatable=0;" vertex="1" parent="y4Bw7Z6qFePfMxJJef1A-81">
          <mxGeometry y="30" width="160" height="60" as="geometry" />
        </mxCell>
        <mxCell id="y4Bw7Z6qFePfMxJJef1A-84" style="edgeStyle=orthogonalEdgeStyle;rounded=0;orthogonalLoop=1;jettySize=auto;html=1;exitX=1;exitY=0.5;exitDx=0;exitDy=0;entryX=0;entryY=0.5;entryDx=0;entryDy=0;" edge="1" parent="y4Bw7Z6qFePfMxJJef1A-1" source="y4Bw7Z6qFePfMxJJef1A-71" target="y4Bw7Z6qFePfMxJJef1A-80">
          <mxGeometry relative="1" as="geometry" />
        </mxCell>
        <mxCell id="y4Bw7Z6qFePfMxJJef1A-85" style="edgeStyle=orthogonalEdgeStyle;rounded=0;orthogonalLoop=1;jettySize=auto;html=1;exitX=1;exitY=0.5;exitDx=0;exitDy=0;entryX=0;entryY=0.5;entryDx=0;entryDy=0;" edge="1" parent="y4Bw7Z6qFePfMxJJef1A-1" source="y4Bw7Z6qFePfMxJJef1A-73" target="y4Bw7Z6qFePfMxJJef1A-80">
          <mxGeometry relative="1" as="geometry" />
        </mxCell>
        <mxCell id="y4Bw7Z6qFePfMxJJef1A-86" style="edgeStyle=orthogonalEdgeStyle;rounded=0;orthogonalLoop=1;jettySize=auto;html=1;exitX=1;exitY=0.5;exitDx=0;exitDy=0;" edge="1" parent="y4Bw7Z6qFePfMxJJef1A-1" source="y4Bw7Z6qFePfMxJJef1A-73" target="y4Bw7Z6qFePfMxJJef1A-78">
          <mxGeometry relative="1" as="geometry" />
        </mxCell>
        <mxCell id="y4Bw7Z6qFePfMxJJef1A-87" style="edgeStyle=orthogonalEdgeStyle;rounded=0;orthogonalLoop=1;jettySize=auto;html=1;exitX=1;exitY=0.5;exitDx=0;exitDy=0;entryX=0;entryY=0.5;entryDx=0;entryDy=0;" edge="1" parent="y4Bw7Z6qFePfMxJJef1A-1" source="y4Bw7Z6qFePfMxJJef1A-73" target="y4Bw7Z6qFePfMxJJef1A-82">
          <mxGeometry relative="1" as="geometry" />
        </mxCell>
        <mxCell id="y4Bw7Z6qFePfMxJJef1A-88" style="edgeStyle=orthogonalEdgeStyle;rounded=0;orthogonalLoop=1;jettySize=auto;html=1;exitX=1;exitY=0.5;exitDx=0;exitDy=0;entryX=0;entryY=0.5;entryDx=0;entryDy=0;" edge="1" parent="y4Bw7Z6qFePfMxJJef1A-1" source="y4Bw7Z6qFePfMxJJef1A-71" target="y4Bw7Z6qFePfMxJJef1A-82">
          <mxGeometry relative="1" as="geometry" />
        </mxCell>
        <mxCell id="y4Bw7Z6qFePfMxJJef1A-90" value="03.4.1" style="swimlane;fontStyle=0;childLayout=stackLayout;horizontal=1;startSize=30;horizontalStack=0;resizeParent=1;resizeParentMax=0;resizeLast=0;collapsible=1;marginBottom=0;" vertex="1" parent="y4Bw7Z6qFePfMxJJef1A-1">
          <mxGeometry x="650" y="800" width="160" height="90" as="geometry" />
        </mxCell>
        <mxCell id="y4Bw7Z6qFePfMxJJef1A-91" value="Реализация функционала&#xa;оплаты " style="text;strokeColor=none;fillColor=none;align=left;verticalAlign=middle;spacingLeft=4;spacingRight=4;overflow=hidden;points=[[0,0.5],[1,0.5]];portConstraint=eastwest;rotatable=0;" vertex="1" parent="y4Bw7Z6qFePfMxJJef1A-90">
          <mxGeometry y="30" width="160" height="60" as="geometry" />
        </mxCell>
        <mxCell id="y4Bw7Z6qFePfMxJJef1A-92" style="edgeStyle=orthogonalEdgeStyle;rounded=0;orthogonalLoop=1;jettySize=auto;html=1;exitX=1;exitY=0.5;exitDx=0;exitDy=0;entryX=0;entryY=0.5;entryDx=0;entryDy=0;" edge="1" parent="y4Bw7Z6qFePfMxJJef1A-1" source="y4Bw7Z6qFePfMxJJef1A-78" target="y4Bw7Z6qFePfMxJJef1A-91">
          <mxGeometry relative="1" as="geometry" />
        </mxCell>
        <mxCell id="y4Bw7Z6qFePfMxJJef1A-94" style="edgeStyle=orthogonalEdgeStyle;rounded=0;orthogonalLoop=1;jettySize=auto;html=1;exitX=1;exitY=0.5;exitDx=0;exitDy=0;entryX=0;entryY=0.5;entryDx=0;entryDy=0;" edge="1" parent="y4Bw7Z6qFePfMxJJef1A-1" source="y4Bw7Z6qFePfMxJJef1A-82" target="y4Bw7Z6qFePfMxJJef1A-91">
          <mxGeometry relative="1" as="geometry" />
        </mxCell>
        <mxCell id="y4Bw7Z6qFePfMxJJef1A-95" style="edgeStyle=orthogonalEdgeStyle;rounded=0;orthogonalLoop=1;jettySize=auto;html=1;exitX=1;exitY=0.5;exitDx=0;exitDy=0;entryX=0;entryY=0.5;entryDx=0;entryDy=0;" edge="1" parent="y4Bw7Z6qFePfMxJJef1A-1" source="y4Bw7Z6qFePfMxJJef1A-80" target="y4Bw7Z6qFePfMxJJef1A-91">
          <mxGeometry relative="1" as="geometry" />
        </mxCell>
        <mxCell id="y4Bw7Z6qFePfMxJJef1A-96" style="edgeStyle=orthogonalEdgeStyle;rounded=0;orthogonalLoop=1;jettySize=auto;html=1;exitX=1;exitY=0.5;exitDx=0;exitDy=0;" edge="1" parent="y4Bw7Z6qFePfMxJJef1A-1" source="y4Bw7Z6qFePfMxJJef1A-91">
          <mxGeometry relative="1" as="geometry">
            <mxPoint x="840" y="860" as="targetPoint" />
          </mxGeometry>
        </mxCell>
        <mxCell id="y4Bw7Z6qFePfMxJJef1A-97" value="03.4.2" style="swimlane;fontStyle=0;childLayout=stackLayout;horizontal=1;startSize=30;horizontalStack=0;resizeParent=1;resizeParentMax=0;resizeLast=0;collapsible=1;marginBottom=0;" vertex="1" parent="y4Bw7Z6qFePfMxJJef1A-1">
          <mxGeometry x="840" y="800" width="170" height="90" as="geometry" />
        </mxCell>
        <mxCell id="y4Bw7Z6qFePfMxJJef1A-98" value="Реализация функционала&#xa;отслеживания стадий заказа" style="text;strokeColor=none;fillColor=none;align=left;verticalAlign=middle;spacingLeft=4;spacingRight=4;overflow=hidden;points=[[0,0.5],[1,0.5]];portConstraint=eastwest;rotatable=0;" vertex="1" parent="y4Bw7Z6qFePfMxJJef1A-97">
          <mxGeometry y="30" width="170" height="60" as="geometry" />
        </mxCell>
        <mxCell id="y4Bw7Z6qFePfMxJJef1A-99" style="edgeStyle=orthogonalEdgeStyle;rounded=0;orthogonalLoop=1;jettySize=auto;html=1;exitX=1;exitY=0.5;exitDx=0;exitDy=0;entryX=0;entryY=0.5;entryDx=0;entryDy=0;" edge="1" parent="y4Bw7Z6qFePfMxJJef1A-1" source="y4Bw7Z6qFePfMxJJef1A-98" target="y4Bw7Z6qFePfMxJJef1A-101">
          <mxGeometry relative="1" as="geometry">
            <mxPoint x="70" y="1240" as="targetPoint" />
            <Array as="points">
              <mxPoint x="1030" y="860" />
              <mxPoint x="1030" y="1080" />
              <mxPoint x="70" y="1080" />
              <mxPoint x="70" y="1240" />
            </Array>
          </mxGeometry>
        </mxCell>
        <mxCell id="y4Bw7Z6qFePfMxJJef1A-100" value="03.4.3" style="swimlane;fontStyle=0;childLayout=stackLayout;horizontal=1;startSize=30;horizontalStack=0;resizeParent=1;resizeParentMax=0;resizeLast=0;collapsible=1;marginBottom=0;" vertex="1" parent="y4Bw7Z6qFePfMxJJef1A-1">
          <mxGeometry x="90" y="1180" width="170" height="90" as="geometry" />
        </mxCell>
        <mxCell id="y4Bw7Z6qFePfMxJJef1A-101" value="Реализация функционала&#xa;взаимодействия с заказами" style="text;strokeColor=none;fillColor=none;align=left;verticalAlign=middle;spacingLeft=4;spacingRight=4;overflow=hidden;points=[[0,0.5],[1,0.5]];portConstraint=eastwest;rotatable=0;" vertex="1" parent="y4Bw7Z6qFePfMxJJef1A-100">
          <mxGeometry y="30" width="170" height="60" as="geometry" />
        </mxCell>
        <mxCell id="y4Bw7Z6qFePfMxJJef1A-102" value="03.5.1" style="swimlane;fontStyle=0;childLayout=stackLayout;horizontal=1;startSize=30;horizontalStack=0;resizeParent=1;resizeParentMax=0;resizeLast=0;collapsible=1;marginBottom=0;" vertex="1" parent="y4Bw7Z6qFePfMxJJef1A-1">
          <mxGeometry x="310" y="1120" width="170" height="90" as="geometry" />
        </mxCell>
        <mxCell id="y4Bw7Z6qFePfMxJJef1A-103" value="Реализация функционала&#xa;проверки работы БД и &#xa;ошибок в ней" style="text;strokeColor=none;fillColor=none;align=left;verticalAlign=middle;spacingLeft=4;spacingRight=4;overflow=hidden;points=[[0,0.5],[1,0.5]];portConstraint=eastwest;rotatable=0;" vertex="1" parent="y4Bw7Z6qFePfMxJJef1A-102">
          <mxGeometry y="30" width="170" height="60" as="geometry" />
        </mxCell>
        <mxCell id="y4Bw7Z6qFePfMxJJef1A-104" value="03.5.2" style="swimlane;fontStyle=0;childLayout=stackLayout;horizontal=1;startSize=30;horizontalStack=0;resizeParent=1;resizeParentMax=0;resizeLast=0;collapsible=1;marginBottom=0;" vertex="1" parent="y4Bw7Z6qFePfMxJJef1A-1">
          <mxGeometry x="310" y="1250" width="170" height="90" as="geometry" />
        </mxCell>
        <mxCell id="y4Bw7Z6qFePfMxJJef1A-105" value="Реализация функционала&#xa;проверки работы серверов" style="text;strokeColor=none;fillColor=none;align=left;verticalAlign=middle;spacingLeft=4;spacingRight=4;overflow=hidden;points=[[0,0.5],[1,0.5]];portConstraint=eastwest;rotatable=0;" vertex="1" parent="y4Bw7Z6qFePfMxJJef1A-104">
          <mxGeometry y="30" width="170" height="60" as="geometry" />
        </mxCell>
        <mxCell id="y4Bw7Z6qFePfMxJJef1A-106" style="edgeStyle=orthogonalEdgeStyle;rounded=0;orthogonalLoop=1;jettySize=auto;html=1;exitX=1;exitY=0.5;exitDx=0;exitDy=0;entryX=0;entryY=0.5;entryDx=0;entryDy=0;" edge="1" parent="y4Bw7Z6qFePfMxJJef1A-1" source="y4Bw7Z6qFePfMxJJef1A-101" target="y4Bw7Z6qFePfMxJJef1A-103">
          <mxGeometry relative="1" as="geometry" />
        </mxCell>
        <mxCell id="y4Bw7Z6qFePfMxJJef1A-107" style="edgeStyle=orthogonalEdgeStyle;rounded=0;orthogonalLoop=1;jettySize=auto;html=1;exitX=1;exitY=0.5;exitDx=0;exitDy=0;entryX=0;entryY=0.5;entryDx=0;entryDy=0;" edge="1" parent="y4Bw7Z6qFePfMxJJef1A-1" source="y4Bw7Z6qFePfMxJJef1A-101" target="y4Bw7Z6qFePfMxJJef1A-105">
          <mxGeometry relative="1" as="geometry" />
        </mxCell>
        <mxCell id="y4Bw7Z6qFePfMxJJef1A-108" value="04.1" style="swimlane;fontStyle=0;childLayout=stackLayout;horizontal=1;startSize=30;horizontalStack=0;resizeParent=1;resizeParentMax=0;resizeLast=0;collapsible=1;marginBottom=0;" vertex="1" parent="y4Bw7Z6qFePfMxJJef1A-1">
          <mxGeometry x="540" y="1200" width="140" height="80" as="geometry" />
        </mxCell>
        <mxCell id="y4Bw7Z6qFePfMxJJef1A-109" value="Тестирование &#xa;интерфейсных &#xa;составляющих" style="text;strokeColor=none;fillColor=none;align=left;verticalAlign=middle;spacingLeft=4;spacingRight=4;overflow=hidden;points=[[0,0.5],[1,0.5]];portConstraint=eastwest;rotatable=0;" vertex="1" parent="y4Bw7Z6qFePfMxJJef1A-108">
          <mxGeometry y="30" width="140" height="50" as="geometry" />
        </mxCell>
        <mxCell id="y4Bw7Z6qFePfMxJJef1A-110" value="04.2" style="swimlane;fontStyle=0;childLayout=stackLayout;horizontal=1;startSize=30;horizontalStack=0;resizeParent=1;resizeParentMax=0;resizeLast=0;collapsible=1;marginBottom=0;" vertex="1" parent="y4Bw7Z6qFePfMxJJef1A-1">
          <mxGeometry x="720" y="1210" width="140" height="60" as="geometry" />
        </mxCell>
        <mxCell id="y4Bw7Z6qFePfMxJJef1A-111" value="Проверка верности &#xa;структуры данных" style="text;strokeColor=none;fillColor=none;align=left;verticalAlign=middle;spacingLeft=4;spacingRight=4;overflow=hidden;points=[[0,0.5],[1,0.5]];portConstraint=eastwest;rotatable=0;" vertex="1" parent="y4Bw7Z6qFePfMxJJef1A-110">
          <mxGeometry y="30" width="140" height="30" as="geometry" />
        </mxCell>
        <mxCell id="y4Bw7Z6qFePfMxJJef1A-112" value="04.3" style="swimlane;fontStyle=0;childLayout=stackLayout;horizontal=1;startSize=30;horizontalStack=0;resizeParent=1;resizeParentMax=0;resizeLast=0;collapsible=1;marginBottom=0;" vertex="1" parent="y4Bw7Z6qFePfMxJJef1A-1">
          <mxGeometry x="100" y="1420" width="140" height="80" as="geometry" />
        </mxCell>
        <mxCell id="y4Bw7Z6qFePfMxJJef1A-113" value="Проверка корректной &#xa;работы функционала &#xa;сайта" style="text;strokeColor=none;fillColor=none;align=left;verticalAlign=middle;spacingLeft=4;spacingRight=4;overflow=hidden;points=[[0,0.5],[1,0.5]];portConstraint=eastwest;rotatable=0;" vertex="1" parent="y4Bw7Z6qFePfMxJJef1A-112">
          <mxGeometry y="30" width="140" height="50" as="geometry" />
        </mxCell>
        <mxCell id="y4Bw7Z6qFePfMxJJef1A-114" value="04.4" style="swimlane;fontStyle=0;childLayout=stackLayout;horizontal=1;startSize=30;horizontalStack=0;resizeParent=1;resizeParentMax=0;resizeLast=0;collapsible=1;marginBottom=0;" vertex="1" parent="y4Bw7Z6qFePfMxJJef1A-1">
          <mxGeometry x="274" y="1420" width="140" height="80" as="geometry" />
        </mxCell>
        <mxCell id="y4Bw7Z6qFePfMxJJef1A-115" value="Проверка корректного &#xa;взаимодействия &#xa;сайта с БД" style="text;strokeColor=none;fillColor=none;align=left;verticalAlign=middle;spacingLeft=4;spacingRight=4;overflow=hidden;points=[[0,0.5],[1,0.5]];portConstraint=eastwest;rotatable=0;" vertex="1" parent="y4Bw7Z6qFePfMxJJef1A-114">
          <mxGeometry y="30" width="140" height="50" as="geometry" />
        </mxCell>
        <mxCell id="y4Bw7Z6qFePfMxJJef1A-116" style="edgeStyle=orthogonalEdgeStyle;rounded=0;orthogonalLoop=1;jettySize=auto;html=1;exitX=1;exitY=0.5;exitDx=0;exitDy=0;entryX=0;entryY=0.5;entryDx=0;entryDy=0;" edge="1" parent="y4Bw7Z6qFePfMxJJef1A-1" source="y4Bw7Z6qFePfMxJJef1A-109" target="y4Bw7Z6qFePfMxJJef1A-111">
          <mxGeometry relative="1" as="geometry" />
        </mxCell>
        <mxCell id="y4Bw7Z6qFePfMxJJef1A-117" style="edgeStyle=orthogonalEdgeStyle;rounded=0;orthogonalLoop=1;jettySize=auto;html=1;exitX=1;exitY=0.5;exitDx=0;exitDy=0;entryX=0;entryY=0.5;entryDx=0;entryDy=0;" edge="1" parent="y4Bw7Z6qFePfMxJJef1A-1" source="y4Bw7Z6qFePfMxJJef1A-111" target="y4Bw7Z6qFePfMxJJef1A-113">
          <mxGeometry relative="1" as="geometry" />
        </mxCell>
        <mxCell id="y4Bw7Z6qFePfMxJJef1A-118" style="edgeStyle=orthogonalEdgeStyle;rounded=0;orthogonalLoop=1;jettySize=auto;html=1;exitX=1;exitY=0.5;exitDx=0;exitDy=0;entryX=0;entryY=0.5;entryDx=0;entryDy=0;" edge="1" parent="y4Bw7Z6qFePfMxJJef1A-1" source="y4Bw7Z6qFePfMxJJef1A-113" target="y4Bw7Z6qFePfMxJJef1A-115">
          <mxGeometry relative="1" as="geometry" />
        </mxCell>
        <mxCell id="y4Bw7Z6qFePfMxJJef1A-119" value="04.5" style="swimlane;fontStyle=0;childLayout=stackLayout;horizontal=1;startSize=30;horizontalStack=0;resizeParent=1;resizeParentMax=0;resizeLast=0;collapsible=1;marginBottom=0;" vertex="1" parent="y4Bw7Z6qFePfMxJJef1A-1">
          <mxGeometry x="460" y="1430" width="140" height="60" as="geometry" />
        </mxCell>
        <mxCell id="y4Bw7Z6qFePfMxJJef1A-120" value="Тестирование проверки&#xa; стабильности" style="text;strokeColor=none;fillColor=none;align=left;verticalAlign=middle;spacingLeft=4;spacingRight=4;overflow=hidden;points=[[0,0.5],[1,0.5]];portConstraint=eastwest;rotatable=0;" vertex="1" parent="y4Bw7Z6qFePfMxJJef1A-119">
          <mxGeometry y="30" width="140" height="30" as="geometry" />
        </mxCell>
        <mxCell id="y4Bw7Z6qFePfMxJJef1A-121" style="edgeStyle=orthogonalEdgeStyle;rounded=0;orthogonalLoop=1;jettySize=auto;html=1;exitX=1;exitY=0.5;exitDx=0;exitDy=0;entryX=0;entryY=0.5;entryDx=0;entryDy=0;" edge="1" parent="y4Bw7Z6qFePfMxJJef1A-1" source="y4Bw7Z6qFePfMxJJef1A-115" target="y4Bw7Z6qFePfMxJJef1A-120">
          <mxGeometry relative="1" as="geometry" />
        </mxCell>
        <mxCell id="y4Bw7Z6qFePfMxJJef1A-122" style="edgeStyle=orthogonalEdgeStyle;rounded=0;orthogonalLoop=1;jettySize=auto;html=1;exitX=1;exitY=0.5;exitDx=0;exitDy=0;entryX=0;entryY=0.5;entryDx=0;entryDy=0;" edge="1" parent="y4Bw7Z6qFePfMxJJef1A-1" source="y4Bw7Z6qFePfMxJJef1A-103" target="y4Bw7Z6qFePfMxJJef1A-109">
          <mxGeometry relative="1" as="geometry" />
        </mxCell>
        <mxCell id="y4Bw7Z6qFePfMxJJef1A-123" style="edgeStyle=orthogonalEdgeStyle;rounded=0;orthogonalLoop=1;jettySize=auto;html=1;exitX=1;exitY=0.5;exitDx=0;exitDy=0;entryX=0;entryY=0.5;entryDx=0;entryDy=0;" edge="1" parent="y4Bw7Z6qFePfMxJJef1A-1" source="y4Bw7Z6qFePfMxJJef1A-105" target="y4Bw7Z6qFePfMxJJef1A-109">
          <mxGeometry relative="1" as="geometry" />
        </mxCell>
      </root>
    </mxGraphModel>
  </diagram>
</mxfile>
